HIERARCHY
ROOT hip
{
  OFFSET 0 0 0
  CHANNELS 6 Xposition Yposition Zposition Zrotation Yrotation Xrotation
  JOINT abdomen
  {
    OFFSET 0 20.6881 -0.73152
    CHANNELS 3 Zrotation Xrotation Yrotation
    JOINT chest
    {
      OFFSET 0 11.7043 -0.48768
      CHANNELS 3 Zrotation Xrotation Yrotation
      JOINT neck
      {
        OFFSET 0 22.1894 -2.19456
        CHANNELS 3 Zrotation Xrotation Yrotation
        JOINT head
        {
          OFFSET -0.24384 7.07133 1.2192
          CHANNELS 3 Zrotation Xrotation Yrotation
          JOINT leftEye
          {
            OFFSET 4.14528 8.04674 8.04672
            CHANNELS 3 Zrotation Xrotation Yrotation
            End Site
            {
              OFFSET 1 0 0
            }
          }
          JOINT rightEye
          {
            OFFSET -3.6576 8.04674 8.04672
            CHANNELS 3 Zrotation Xrotation Yrotation
            End Site
            {
              OFFSET 1 0 0
            }
          }
        }
      }
      JOINT rCollar
      {
        OFFSET -2.68224 19.2634 -4.8768
        CHANNELS 3 Zrotation Xrotation Yrotation
        JOINT rShldr
        {
          OFFSET -8.77824 -1.95073 1.46304
          CHANNELS 3 Zrotation Xrotation Yrotation
          JOINT rForeArm
          {
            OFFSET -28.1742 -1.7115 0.48768
            CHANNELS 3 Zrotation Xrotation Yrotation
            JOINT rHand
            {
              OFFSET -22.5879 0.773209 7.07136
              CHANNELS 3 Zrotation Xrotation Yrotation
              JOINT rThumb1
              {
                OFFSET -1.2192 -0.487915 3.41376
                CHANNELS 3 Zrotation Xrotation Yrotation
                JOINT rThumb2
                {
                  OFFSET -3.37035 -0.52449 3.41376
                  CHANNELS 3 Zrotation Xrotation Yrotation
                  End Site
                  {
                    OFFSET -1.78271 -1.18214 1.43049
                  }
                }
              }
              JOINT rIndex1
              {
                OFFSET -7.75947 0.938293 5.60832
                CHANNELS 3 Zrotation Xrotation Yrotation
                JOINT rIndex2
                {
                  OFFSET -2.54057 -0.884171 1.56538
                  CHANNELS 3 Zrotation Xrotation Yrotation
                  End Site
                  {
                    OFFSET -1.62519 -0.234802 1.16502
                  }
                }
              }
              JOINT rMid1
              {
                OFFSET -8.24714 1.18213 3.41376
                CHANNELS 3 Zrotation Xrotation Yrotation
                JOINT rMid2
                {
                  OFFSET -3.10165 -0.590103 1.0647
                  CHANNELS 3 Zrotation Xrotation Yrotation
                  End Site
                  {
                    OFFSET -2.48547 -0.328903 0.83742
                  }
                }
              }
              JOINT rRing1
              {
                OFFSET -8.82822 0.546677 1.51678
                CHANNELS 3 Zrotation Xrotation Yrotation
                JOINT rRing2
                {
                  OFFSET -2.60934 -0.819778 -0.0198488
                  CHANNELS 3 Zrotation Xrotation Yrotation
                  End Site
                  {
                    OFFSET -2.33842 -0.294052 0.168128
                  }
                }
              }
              JOINT rPinky1
              {
                OFFSET -8.27202 -0.0477905 -0.4584
                CHANNELS 3 Zrotation Xrotation Yrotation
                JOINT rPinky2
                {
                  OFFSET -1.82734 -0.647385 -0.700984
                  CHANNELS 3 Zrotation Xrotation Yrotation
                  End Site
                  {
                    OFFSET -1.69225 -0.51767 -0.607171
                  }
                }
              }
            }
          }
        }
      }
      JOINT lCollar
      {
        OFFSET 2.68224 19.2634 -4.8768
        CHANNELS 3 Zrotation Xrotation Yrotation
        JOINT lShldr
        {
          OFFSET 8.77824 -1.95073 1.46304
          CHANNELS 3 Zrotation Xrotation Yrotation
          JOINT lForeArm
          {
            OFFSET 28.1742 -1.7115 0.48768
            CHANNELS 3 Zrotation Xrotation Yrotation
            JOINT lHand
            {
              OFFSET 22.5879 0.773209 7.07136
              CHANNELS 3 Zrotation Xrotation Yrotation
              JOINT lThumb1
              {
                OFFSET 1.2192 -0.487915 3.41376
                CHANNELS 3 Zrotation Xrotation Yrotation
                JOINT lThumb2
                {
                  OFFSET 3.37035 -0.52449 3.41376
                  CHANNELS 3 Zrotation Xrotation Yrotation
                  End Site
                  {
                    OFFSET 1.78271 -1.18214 1.43049
                  }
                }
              }
              JOINT lIndex1
              {
                OFFSET 7.75947 0.938293 5.60832
                CHANNELS 3 Zrotation Xrotation Yrotation
                JOINT lIndex2
                {
                  OFFSET 2.54057 -0.884171 1.56538
                  CHANNELS 3 Zrotation Xrotation Yrotation
                  End Site
                  {
                    OFFSET 1.62519 -0.234802 1.16502
                  }
                }
              }
              JOINT lMid1
              {
                OFFSET 8.24714 1.18213 3.41376
                CHANNELS 3 Zrotation Xrotation Yrotation
                JOINT lMid2
                {
                  OFFSET 3.10165 -0.590103 1.0647
                  CHANNELS 3 Zrotation Xrotation Yrotation
                  End Site
                  {
                    OFFSET 2.48547 -0.328903 0.83742
                  }
                }
              }
              JOINT lRing1
              {
                OFFSET 8.82822 0.546677 1.51678
                CHANNELS 3 Zrotation Xrotation Yrotation
                JOINT lRing2
                {
                  OFFSET 2.60934 -0.819778 -0.0198488
                  CHANNELS 3 Zrotation Xrotation Yrotation
                  End Site
                  {
                    OFFSET 2.33842 -0.294052 0.168128
                  }
                }
              }
              JOINT lPinky1
              {
                OFFSET 8.27202 -0.0477905 -0.4584
                CHANNELS 3 Zrotation Xrotation Yrotation
                JOINT lPinky2
                {
                  OFFSET 1.82734 -0.647385 -0.700984
                  CHANNELS 3 Zrotation Xrotation Yrotation
                  End Site
                  {
                    OFFSET 1.69225 -0.51767 -0.607171
                  }
                }
              }
            }
          }
        }
      }
    }
  }
  JOINT rButtock
  {
    OFFSET -8.77824 4.35084 1.2192
    CHANNELS 3 Zrotation Xrotation Yrotation
    JOINT rThigh
    {
      OFFSET 0 -1.70687 -2.19456
      CHANNELS 3 Zrotation Xrotation Yrotation
      JOINT rShin
      {
        OFFSET 0 -36.8199 0.73152
        CHANNELS 3 Zrotation Xrotation Yrotation
        JOINT rFoot
        {
          OFFSET 0.73152 -45.1104 -5.12064
          CHANNELS 3 Zrotation Xrotation Yrotation
          End Site
          {
            OFFSET -1.1221 -3.69964 12.103
          }
        }
      }
    }
  }
  JOINT lButtock
  {
    OFFSET 8.77824 4.35084 1.2192
    CHANNELS 3 Zrotation Xrotation Yrotation
    JOINT lThigh
    {
      OFFSET 0 -1.70687 -2.19456
      CHANNELS 3 Zrotation Xrotation Yrotation
      JOINT lShin
      {
        OFFSET 0 -36.8199 0.73152
        CHANNELS 3 Zrotation Xrotation Yrotation
        JOINT lFoot
        {
          OFFSET -0.73152 -45.1104 -5.12064
          CHANNELS 3 Zrotation Xrotation Yrotation
          End Site
          {
            OFFSET 1.1221 -3.69964 12.103
          }
        }
      }
    }
  }
}
MOTION
Frames:	4
Frame Time:	0.00833333
47.6395 85.5269 252.879 0.0 0.0 0.0 2.34101 -0.00222419 0.0637214 0.646596 0.00594982 0.111938 -1.6191e-14 7.95139e-16 1.49089e-16 -4.80127e-14 9.54166e-15 4.95409e-16 -0.0 0.0 0.0 -0.0 0.0 0.0 -8.20155e-15 -1.45594e-17 1.98785e-16 -1.69838e-13 -1.98785e-16 1.78906e-15 -2.95086e-12 8.65906e-13 6.04305e-14 -3.36676e-11 -9.42662e-13 3.11694e-13 -7.94296e-11 -1.70611e-13 8.39666e-13 -1.37173e-10 -2.95792e-13 1.4392e-12 -7.94252e-11 -1.7016e-13 8.26944e-13 7.73091 5.47488 0.417314 -7.94293e-11 -1.70557e-13 8.36486e-13 2.90554 0.965183 0.102902 -7.94262e-11 -1.70657e-13 8.33305e-13 10.2786 0.731801 0.0259123 -7.94369e-11 -1.67377e-13 8.36486e-13 2.22167 -0.733487 -0.20892 -8.29811e-15 -1.70831e-17 0.0 -1.74163e-13 -2.91965e-16 0.0 -2.94147e-12 -8.95326e-13 6.67917e-14 -3.37151e-11 8.11911e-13 3.11694e-13 -7.95031e-11 -1.8439e-13 8.20583e-13 -1.37286e-10 -3.14875e-13 1.42807e-12 -7.95067e-11 -1.85267e-13 8.30125e-13 -7.73091 5.47488 -0.417314 -7.95035e-11 -1.84969e-13 8.23764e-13 -2.90554 0.965183 -0.102902 -7.95101e-11 -1.84174e-13 8.25354e-13 -10.2786 0.731801 -0.0259123 -7.95e-11 -1.82484e-13 8.26944e-13 -2.22167 -0.733487 0.20892 -2.03217e-16 0.0 -3.88251e-19 2.2155 -8.02973 -0.23136 0.00607166 8.97368 0.152071 -0.477698 -0.951456 0.0348649 2.03217e-16 0.0 3.88251e-19 1.35207 -1.92788 -0.00535813 0.00846648 -2.07867 0.0694592 0.423852 3.99897 -0.127288
46.842 84.1276 241.032 -178.724 -17.9538 178.922 2.96953 0.997323 2.3287 -0.188122 -2.49537 0.714477 1.18574 2.7174 3.11235 -2.05731 -3.11937 5.6958 -0.0 0.0 0.0 -0.0 0.0 0.0 -1.0812e-14 -3.49006e-15 1.1691e-14 21.5278 13.3621 -3.67011 -5.21274 -2.6068 7.86648 0.0240233 3.43923 0.480212 -3.11072e-10 2.20714e-10 -3.5828e-11 -5.38448e-10 3.78916e-10 -5.914e-11 -3.11067e-10 2.20715e-10 -3.58408e-11 7.73091 5.47488 0.417314 -3.11072e-10 2.20714e-10 -3.58323e-11 2.90554 0.965183 0.102902 -3.11069e-10 2.20714e-10 -3.58335e-11 10.2786 0.731801 0.0259123 -3.11078e-10 2.20717e-10 -3.58296e-11 2.22167 -0.733487 -0.20892 -1.08982e-14 -3.49046e-15 1.14627e-14 -19.5907 1.06764 4.083 6.18158 -3.352 -8.99543 -0.0335755 4.11362 -0.572948 -2.77778e-10 -4.61483e-10 9.20095e-12 -4.79707e-10 -7.9964e-10 1.89076e-11 -2.77783e-10 -4.61484e-10 9.20947e-12 -7.73091 5.47488 -0.417314 -2.77779e-10 -4.61484e-10 9.20122e-12 -2.90554 0.965183 -0.102902 -2.77786e-10 -4.61483e-10 9.20481e-12 -10.2786 0.731801 -0.0259123 -2.77774e-10 -4.61481e-10 9.20572e-12 -2.22167 -0.733487 0.20892 -2.03217e-16 0.0 -3.88251e-19 4.78813 -8.95986 2.02018 0.0808733 14.9515 0.391799 -3.27666 -9.68889 -11.1327 2.03217e-16 0.0 3.88251e-19 0.379681 -5.85954 -7.1194 -0.0131934 6.99769 -0.0924125 0.333763 -2.23712 -0.599245
46.8558 84.1256 240.926 -178.742 -17.8218 178.974 3.55894 2.0553 4.72238 -1.02732 -5.14071 1.35366 2.12116 5.57342 6.4109 -3.58603 -6.34773 11.7408 -0.0 0.0 0.0 -0.0 0.0 0.0 -1.28893e-14 -7.16422e-15 2.97929e-14 46.3517 27.312 -8.26424 -9.95285 -5.19894 16.2345 -0.013696 7.07261 0.993428 -5.65219e-10 4.72183e-10 -7.50108e-11 -9.78689e-10 8.10822e-10 -1.2384e-10 -5.65214e-10 4.72184e-10 -7.50237e-11 7.73091 5.47488 0.417314 -5.65219e-10 4.72183e-10 -7.50166e-11 2.90554 0.965183 0.102902 -5.65216e-10 4.72183e-10 -7.50154e-11 10.2786 0.731801 0.0259123 -5.65224e-10 4.72185e-10 -7.50108e-11 2.22167 -0.733487 -0.20892 -1.2966e-14 -7.16226e-15 2.95319e-14 -40.4926 2.09644 8.40163 11.549 -6.5851 -18.5542 0.0221522 8.53284 -1.19875 -5.30272e-10 -1.02672e-09 3.61963e-11 -9.1571e-10 -1.77905e-09 6.93035e-11 -5.30277e-10 -1.02672e-09 3.62037e-11 -7.73091 5.47488 -0.417314 -5.30273e-10 -1.02672e-09 3.61933e-11 -2.90554 0.965183 -0.102902 -5.3028e-10 -1.02672e-09 3.61992e-11 -10.2786 0.731801 -0.0259123 -5.30266e-10 -1.02672e-09 3.61995e-11 -2.22167 -0.733487 0.20892 -2.03217e-16 0.0 -3.88251e-19 7.58272 -9.93208 4.40683 0.101395 21.2732 0.665017 -9.99425 -17.7377 -23.8173 2.03217e-16 0.0 3.88251e-19 -1.716 -9.78654 -14.7866 0.021541 16.5932 -0.273406 0.122844 -8.82653 -1.12201
46.8598 84.116 240.84 -178.859 -17.6434 179.151 3.98984 2.97741 6.86691 -1.69856 -7.49438 1.93405 2.66842 8.05557 9.42034 -4.32263 -8.98704 17.2807 -0.0 0.0 0.0 -0.0 0.0 0.0 -1.60328e-14 -1.0441e-14 3.46755e-14 70.9515 39.3282 -13.9036 -13.544 -7.23201 23.7755 -0.10328 10.3148 1.46167 -7.74356e-10 6.62483e-10 -1.09163e-10 -1.341e-09 1.13734e-09 -1.80298e-10 -7.74351e-10 6.62484e-10 -1.09176e-10 7.73091 5.47488 0.417314 -7.74357e-10 6.62483e-10 -1.0917e-10 2.90554 0.965183 0.102902 -7.74353e-10 6.62482e-10 -1.09167e-10 10.2786 0.731801 0.0259123 -7.74361e-10 6.62484e-10 -1.09162e-10 2.22167 -0.733487 -0.20892 -1.60984e-14 -1.04372e-14 3.43882e-14 -59.2253 3.13791 12.2655 15.4842 -9.06624 -27.3087 0.151011 12.3359 -1.75495 -6.74328e-10 -1.38408e-09 2.59617e-11 -1.16455e-09 -2.39829e-09 5.38667e-11 -6.74334e-10 -1.38408e-09 2.59682e-11 -7.73091 5.47488 -0.417314 -6.74329e-10 -1.38408e-09 2.59561e-11 -2.90554 0.965183 -0.102902 -6.74337e-10 -1.38408e-09 2.59637e-11 -10.2786 0.731801 -0.0259123 -6.74321e-10 -1.38408e-09 2.59633e-11 -2.22167 -0.733487 0.20892 -2.03217e-16 0.0 -3.88251e-19 10.1554 -10.7671 6.56075 0.0624558 26.9051 0.936566 -19.141 -22.9575 -36.2461 2.03217e-16 0.0 3.88251e-19 -4.48004 -12.9006 -21.813 0.109124 25.1497 -0.457357 -0.16335 -14.7043 -1.59465
